<?xml version="1.0" encoding="UTF-8" standalone="no"?>
<svg
   xmlns:dc="http://purl.org/dc/elements/1.1/"
   xmlns:cc="http://creativecommons.org/ns#"
   xmlns:rdf="http://www.w3.org/1999/02/22-rdf-syntax-ns#"
   xmlns:svg="http://www.w3.org/2000/svg"
   xmlns="http://www.w3.org/2000/svg"
   xmlns:sodipodi="http://sodipodi.sourceforge.net/DTD/sodipodi-0.dtd"
   xmlns:inkscape="http://www.inkscape.org/namespaces/inkscape"
   width="133px"
   height="31px"
   viewBox="0 0 133 31"
   version="1.1"
   id="svg72"
   sodipodi:docname="logo2.svg"
   inkscape:version="0.92.3 (2405546, 2018-03-11)"
   inkscape:export-filename="/home/ismael/instaClone/frontend/src/assets/logopng.png"
   inkscape:export-xdpi="96"
   inkscape:export-ydpi="96">
  <metadata
     id="metadata78">
    <rdf:RDF>
      <cc:Work
         rdf:about="">
        <dc:format>image/svg+xml</dc:format>
        <dc:type
           rdf:resource="http://purl.org/dc/dcmitype/StillImage" />
        <dc:title>logo</dc:title>
      </cc:Work>
    </rdf:RDF>
  </metadata>
  <defs
     id="defs76" />
  <sodipodi:namedview
     pagecolor="#ffffff"
     bordercolor="#666666"
     borderopacity="1"
     objecttolerance="10"
     gridtolerance="10"
     guidetolerance="10"
     inkscape:pageopacity="0"
     inkscape:pageshadow="2"
     inkscape:window-width="1219"
     inkscape:window-height="665"
     id="namedview74"
     showgrid="false"
     inkscape:zoom="2.7858944"
     inkscape:cx="148.75971"
     inkscape:cy="34.180758"
     inkscape:window-x="1341"
     inkscape:window-y="27"
     inkscape:window-maximized="1"
     inkscape:current-layer="layer1" />
  <!-- Generator: Sketch 55 (78076) - https://sketchapp.com -->
  <title
     id="title63">logo</title>
  <desc
     id="desc65">Created with Sketch.</desc>
  <g
     transform="matrix(2.8318476,0,0,2.8256334,-105.75972,-442.18253)"
     id="layer1"
     inkscape:label="Camada 1">
    <path
       inkscape:connector-curvature="0"
       id="path81"
       d="m 39.231625,167.06406 c -0.128668,-0.0565 -0.30492,-0.17464 -0.391673,-0.26245 -0.351256,-0.35553 -0.339423,-0.19262 -0.339066,-4.66802 2.16e-4,-2.73637 0.02108,-4.16656 0.06287,-4.30939 0.08948,-0.30584 0.48978,-0.66735 0.828643,-0.74834 0.39685,-0.0948 8.620694,-0.0917 8.95613,0.003 0.310719,0.0881 0.690052,0.44815 0.782893,0.74306 0.09435,0.29972 0.103558,8.20966 0.0099,8.52967 -0.07984,0.27287 -0.373708,0.58659 -0.668561,0.71373 -0.220092,0.0949 -0.502931,0.10108 -4.620831,0.10108 -4.146289,0 -4.399195,-0.006 -4.62033,-0.1028 z m 8.626565,-1.17148 c 0.11312,-0.10736 0.11697,-0.18503 0.11697,-2.35915 v -2.24814 h -0.470531 -0.470532 l 0.0459,0.20816 c 0.07663,0.34753 0.04329,1.07572 -0.06533,1.42647 -0.177611,0.57357 -0.43122,0.9768 -0.874745,1.3908 -1.024559,0.95635 -2.46897,1.17547 -3.766878,0.57144 -0.567137,-0.26394 -1.175813,-0.84681 -1.443975,-1.38275 -0.34904,-0.69758 -0.45175,-1.45153 -0.284615,-2.08922 0.03193,-0.12181 0.02101,-0.1249 -0.441488,-0.1249 h -0.474221 v 2.24814 c 0,2.17412 0.0038,2.25179 0.11697,2.35915 0.114625,0.1088 0.194951,0.11102 4.006236,0.11102 3.811285,0 3.89161,-0.002 4.006235,-0.11102 z m -3.429584,-1.90996 c 0.658101,-0.18798 1.180427,-0.68465 1.394548,-1.32605 0.306063,-0.91682 -0.190613,-1.93062 -1.152407,-2.35226 -0.500779,-0.21954 -1.136806,-0.21954 -1.637585,0 -0.456344,0.20005 -0.856068,0.57726 -1.062457,1.00261 -0.136687,0.28169 -0.164679,0.41445 -0.165157,0.78326 -8.96e-4,0.69133 0.292212,1.23017 0.877175,1.61255 0.527209,0.34463 1.162626,0.4465 1.745883,0.27989 z m 3.434883,-3.96632 c 0.0974,-0.1143 0.111671,-0.2255 0.111671,-0.87025 0,-0.73245 -0.0014,-0.74025 -0.1541,-0.85425 -0.137762,-0.10285 -0.233875,-0.11504 -0.90652,-0.11504 -1.016278,0 -0.986361,-0.0301 -0.986361,0.99056 0,1.02278 -0.01434,1.00987 1.101896,0.99174 0.680597,-0.011 0.728108,-0.0192 0.833414,-0.14276 z"
       style="fill:#000000;stroke-width:0.05697795" />
    <g
       aria-label="InstaClone"
       style="font-style:normal;font-variant:normal;font-weight:normal;font-stretch:normal;font-size:10.58333302px;line-height:1.25;font-family:Billabong;-inkscape-font-specification:'Billabong, Normal';font-variant-ligatures:normal;font-variant-caps:normal;font-variant-numeric:normal;text-align:center;letter-spacing:0px;word-spacing:0px;writing-mode:lr-tb;text-anchor:middle;fill:#000000;fill-opacity:1;stroke:none;stroke-width:0.26458332"
       id="text111">
      <path
         d="m 54.301361,159.32443 q -0.01058,0.0106 -0.03175,0.0529 -0.01058,0.0423 -0.01058,0.14817 0,0.14817 0.04233,0.28575 v 3.50308 q 0,0.53975 -0.105834,1.03717 -0.105833,0.49742 -0.370416,0.889 -0.254,0.381 -0.709084,0.60325 -0.4445,0.23283 -1.143,0.23283 h -0.137583 q -0.60325,0 -0.98425,-0.16933 -0.370417,-0.15875 -0.582083,-0.41275 -0.211667,-0.254 -0.28575,-0.55033 -0.07408,-0.30692 -0.07408,-0.58209 0,-0.23283 0.0635,-0.4445 0.05292,-0.22225 0.169334,-0.381 0.105833,-0.16933 0.264583,-0.26458 0.15875,-0.10583 0.359833,-0.10583 0.1905,0 0.243417,0.10583 0.05292,0.0952 0.05292,0.20108 0,0.23284 -0.09525,0.39159 -0.09525,0.14816 -0.211667,0.26458 -0.105833,0.11642 -0.201083,0.23283 -0.09525,0.11642 -0.09525,0.28575 0,0.508 0.338666,0.73025 0.338667,0.22225 0.846667,0.22225 0.4445,0 0.772583,-0.17991 0.328084,-0.17992 0.53975,-0.45509 0.22225,-0.27516 0.328084,-0.59266 0.105833,-0.32809 0.105833,-0.61384 l -0.15875,0.0106 q -0.381,0 -0.66675,-0.16934 -0.275167,-0.17991 -0.465667,-0.4445 -0.179916,-0.26458 -0.275166,-0.5715 -0.08467,-0.30691 -0.08467,-0.5715 v -0.37041 q 0,-0.20109 0.05292,-0.46567 0.05292,-0.27517 0.148166,-0.56092 0.09525,-0.29633 0.232834,-0.5715 0.137583,-0.28575 0.296333,-0.508 0.15875,-0.22225 0.338667,-0.35983 0.179916,-0.13758 0.370416,-0.13758 0.07408,0 0.169334,0.0317 l 0.740833,0.0529 q 0.07408,0.0106 0.137583,0.0529 0.07408,0.0423 0.07408,0.14817 z m -0.910167,1.27 q 0.02117,-0.0847 0.04233,-0.15875 0.02117,-0.0741 0.02117,-0.16934 0,-0.13758 -0.07408,-0.24341 -0.0635,-0.11642 -0.243417,-0.11642 -0.232833,0 -0.381,0.1905 -0.148167,0.1905 -0.232833,0.45508 -0.07408,0.26459 -0.105834,0.55034 -0.03175,0.28575 -0.03175,0.46566 0,0.13759 0.02117,0.40217 0.02117,0.254 0.09525,0.508 0.08467,0.254 0.22225,0.4445 0.148167,0.1905 0.391583,0.1905 0.02117,0 0.116417,-0.0106 0.105833,-0.0106 0.15875,-0.0317 z"
         style="stroke-width:0.26458332"
         id="path313" />
      <path
         d="m 56.719156,163.34609 q -0.15875,0.22225 -0.264583,0.49742 -0.09525,0.26458 -0.169333,0.56092 -0.07408,0.28575 -0.127,0.58208 -0.04233,0.28575 -0.09525,0.55033 -0.02117,0.0635 -0.169334,0.0847 -0.137583,0.0212 -0.201083,0.0212 -0.1905,0 -0.3175,-0.0212 -0.116417,-0.0212 -0.179917,-0.0952 -0.0635,-0.0847 -0.09525,-0.24342 -0.03175,-0.16933 -0.05292,-0.4445 l 0.137583,-3.14325 q 0,-0.13758 0.148167,-0.13758 0.05292,0 0.148166,0.0212 0.09525,0.0106 0.201084,0.0423 0.105833,0.0317 0.179916,0.0847 0.07408,0.0423 0.07408,0.10583 v 2.14842 q 0.01058,-0.0106 0.03175,-0.0847 0.07408,-0.1905 0.179916,-0.46567 0.105834,-0.28575 0.232834,-0.53975 0.127,-0.254 0.264583,-0.43391 0.148167,-0.17992 0.296333,-0.17992 0.1905,0 0.28575,0.0952 0.105834,0.0847 0.15875,0.22225 0.05292,0.13758 0.0635,0.29633 0.01058,0.15875 0.01058,0.30692 0,0.10583 -0.02117,0.34925 -0.02117,0.24342 -0.02117,0.73025 0,0.27517 0.05292,0.49742 0.05292,0.22225 0.211667,0.22225 0.116416,0 0.211666,-0.10584 0.09525,-0.10583 0.169334,-0.26458 0.08467,-0.15875 0.137583,-0.33867 0.05292,-0.17991 0.0635,-0.33866 0.01058,-0.20109 0.15875,-0.20109 0.09525,0 0.127,0.0635 0.03175,0.0635 0.03175,0.14817 v 0.0212 q -0.01058,0.21166 -0.08467,0.47625 -0.0635,0.26458 -0.201083,0.49741 -0.127,0.23284 -0.338667,0.39159 -0.211666,0.15875 -0.518583,0.15875 -0.47625,0 -0.613833,-0.33867 -0.127,-0.34925 -0.127,-1.02658 z"
         style="stroke-width:0.26458332"
         id="path315" />
      <path
         d="m 60.843349,164.99709 q 0,0.254 -0.169333,0.39159 -0.169334,0.13758 -0.391584,0.20108 -0.211666,0.0635 -0.433916,0.0741 -0.211667,0.0212 -0.306917,0.0212 -0.148167,0 -0.370417,-0.0318 -0.211666,-0.0317 -0.423333,-0.0952 -0.201083,-0.0741 -0.34925,-0.20108 -0.137583,-0.127 -0.137583,-0.3175 0,-0.11642 0.08467,-0.15875 0.09525,-0.0529 0.179917,-0.0529 0.116417,0 0.22225,0.0847 0.116417,0.0847 0.232833,0.17991 0.127,0.0952 0.275167,0.17992 0.148167,0.0847 0.338667,0.0847 0.08467,0 0.22225,-0.0529 0.148166,-0.0635 0.148166,-0.21167 0,-0.14816 -0.127,-0.28575 -0.116416,-0.13758 -0.306916,-0.28575 -0.179917,-0.14816 -0.391584,-0.30691 -0.211666,-0.15875 -0.402166,-0.33867 -0.179917,-0.1905 -0.306917,-0.41275 -0.116417,-0.22225 -0.116417,-0.48683 0,-0.37042 0.232834,-0.62442 0.243416,-0.254 0.560916,-0.40217 0.328084,-0.14816 0.66675,-0.21166 0.338667,-0.0635 0.529167,-0.0635 0.179917,0 0.359833,0.0741 0.179917,0.0741 0.179917,0.28575 0,0.0635 -0.03175,0.1905 -0.02117,0.11642 -0.08467,0.23283 -0.05292,0.11642 -0.148166,0.21167 -0.09525,0.0847 -0.243417,0.0847 -0.04233,0 -0.08467,-0.0318 -0.04233,-0.0423 -0.09525,-0.0847 -0.05292,-0.0529 -0.116416,-0.0847 -0.05292,-0.0423 -0.127,-0.0423 -0.370417,0 -0.518584,0.22225 -0.148166,0.21167 -0.148166,0.45508 0,0.21167 0.243416,0.4445 0.254,0.23284 0.550334,0.46567 0.306916,0.23283 0.550333,0.46567 0.254,0.22225 0.254,0.43391 z"
         style="stroke-width:0.26458332"
         id="path317" />
      <path
         d="m 61.060969,163.73768 q 0.01058,-0.53975 0.03175,-1.10067 0.02117,-0.56092 0.04233,-1.03717 0,-0.0847 -0.169333,-0.11641 -0.169334,-0.0317 -0.381,-0.0635 -0.211667,-0.0317 -0.381,-0.0952 -0.169334,-0.0741 -0.169334,-0.23284 0,-0.13758 0.275167,-0.15875 0.275167,-0.0212 0.814917,-0.0212 0.04233,0 0.05292,-0.127 0.02117,-0.127 0.02117,-0.3175 0.01058,-0.20109 0.01058,-0.42334 0.01058,-0.22225 0.02117,-0.41275 0.01058,-0.20108 0.03175,-0.32808 0.03175,-0.127 0.07408,-0.127 0.05292,0 0.1905,0.0212 0.137583,0.0212 0.28575,0.0635 0.148167,0.0317 0.254,0.0847 0.116417,0.0529 0.116417,0.11642 l -0.116417,1.37583 q 0,0.0635 0.105833,0.0952 0.116417,0.0212 0.28575,0.0318 0.179917,0 0.370417,0 0.201083,0 0.370417,0.0317 0.179916,0.0317 0.28575,0.10584 0.116416,0.0635 0.116416,0.20108 0,0.0212 -0.02117,0.0741 -0.02117,0.0423 -0.05292,0.0423 -0.02117,0 -0.0635,-0.0317 -0.03175,-0.0318 -0.1905,-0.0318 -0.04233,0 -0.232833,0.0106 -0.1905,0.0106 -0.402167,0.0318 -0.211667,0.0212 -0.391583,0.0529 -0.169334,0.0212 -0.1905,0.0635 -0.01058,0.0212 -0.03175,0.254 -0.01058,0.22225 -0.03175,0.59266 -0.01058,0.37042 -0.02117,0.85725 -0.01058,0.47625 -0.01058,1.00542 0,0.20108 0.02117,0.39158 0.02117,0.1905 0.0635,0.34925 0.04233,0.14817 0.105834,0.24342 0.07408,0.0952 0.169333,0.0952 0.137583,0 0.254,-0.11642 0.116417,-0.11641 0.211667,-0.3175 0.09525,-0.20108 0.169333,-0.45508 0.07408,-0.254 0.127,-0.51858 0.03175,-0.15875 0.07408,-0.22225 0.04233,-0.0741 0.127,-0.0741 0.07408,0 0.127,0.0529 0.0635,0.0423 0.0635,0.21167 0,0.10583 -0.01058,0.13758 -0.03175,0.1905 -0.127,0.52917 -0.08467,0.32808 -0.243417,0.65616 -0.148166,0.3175 -0.370416,0.56092 -0.22225,0.24342 -0.518584,0.24342 -0.28575,0 -0.497416,-0.16934 -0.211667,-0.15875 -0.359834,-0.4445 -0.137583,-0.29633 -0.211666,-0.68791 -0.07408,-0.40217 -0.07408,-0.85725 z"
         style="stroke-width:0.26458332"
         id="path319" />
      <path
         d="m 67.34135,164.49968 q -0.02117,0.14816 -0.105834,0.34925 -0.08467,0.20108 -0.22225,0.39158 -0.127,0.17992 -0.306916,0.30692 -0.169334,0.127 -0.381,0.127 -0.3175,0 -0.560917,-0.24342 -0.232833,-0.24342 -0.28575,-0.68792 -0.0635,0.16934 -0.148167,0.39159 -0.08467,0.22225 -0.211666,0.41275 -0.127,0.1905 -0.296334,0.3175 -0.15875,0.13758 -0.381,0.13758 -0.0635,0 -0.09525,-0.0106 -0.03175,-0.0106 -0.07408,-0.0317 -0.03175,-0.0106 -0.08467,-0.0212 -0.04233,-0.0106 -0.127,-0.0106 -0.254,0 -0.433916,-0.16934 -0.169334,-0.15875 -0.275167,-0.41275 -0.105833,-0.254 -0.15875,-0.55033 -0.04233,-0.30692 -0.04233,-0.5715 0,-0.635 0.0635,-1.2065 0.07408,-0.5715 0.232833,-1.00542 0.15875,-0.4445 0.41275,-0.6985 0.254,-0.26458 0.613833,-0.26458 0.211667,0 0.3175,0.0423 0.116417,0.0318 0.211667,0.0847 0.09525,0.0423 0.201083,0.0952 0.116417,0.0529 0.3175,0.0847 0.22225,0.127 0.306917,0.30691 0.09525,0.16934 0.116417,0.37042 0.03175,0.20108 0.02117,0.42333 -0.01058,0.21167 0.02117,0.42334 0,0.0106 0.04233,0.0318 0.05292,0.0212 0.116417,0.0529 0.0635,0.0212 0.105833,0.0741 0.05292,0.0423 0.05292,0.11641 v 0.0423 q -0.105833,0.27516 -0.127,0.48683 -0.02117,0.21167 -0.02117,0.508 0,0.14817 0.01058,0.32808 0.02117,0.16934 0.05292,0.32809 0.04233,0.14816 0.116417,0.254 0.07408,0.0953 0.1905,0.0953 0.127,0 0.22225,-0.127 0.105833,-0.127 0.169333,-0.28575 0.07408,-0.16934 0.116417,-0.33867 0.05292,-0.16933 0.0635,-0.254 0.02117,-0.127 0.105833,-0.127 0.05292,0 0.09525,0.0635 0.05292,0.0529 0.05292,0.20108 0,0.0423 0,0.0847 0,0.0318 -0.01058,0.0847 z m -1.957917,-1.7145 q 0,-0.11642 -0.02117,-0.27517 -0.02117,-0.15875 -0.07408,-0.29633 -0.05292,-0.13759 -0.15875,-0.23284 -0.105833,-0.0952 -0.28575,-0.0952 -0.296333,0 -0.486833,0.27517 -0.179917,0.26458 -0.28575,0.635 -0.105834,0.35983 -0.137584,0.75142 -0.03175,0.381 -0.03175,0.60325 0,0.16933 0.01058,0.41275 0.02117,0.23283 0.0635,0.4445 0.04233,0.21166 0.116416,0.35983 0.08467,0.14817 0.211667,0.14817 0.306917,0 0.465667,-0.23284 0.169333,-0.24341 0.254,-0.59266 0.08467,-0.35984 0.116416,-0.762 0.04233,-0.41275 0.07408,-0.75142 0.02117,-0.17992 0.09525,-0.22225 0.07408,-0.0529 0.07408,-0.0741 z"
         style="stroke-width:0.26458332"
         id="path321" />
      <path
         d="m 71.408326,164.10809 q -0.07408,0.28575 -0.243417,0.59267 -0.15875,0.30692 -0.402166,0.58208 -0.359833,0.41275 -0.79375,0.55034 -0.433917,0.13758 -0.783167,0.13758 -1.04775,0 -1.55575,-0.80433 -0.497416,-0.80434 -0.497416,-2.31775 0,-0.79375 0.137583,-1.48167 0.148167,-0.68792 0.391583,-1.19592 0.243417,-0.51858 0.5715,-0.81491 0.338667,-0.29634 0.719667,-0.29634 h 0.22225 q 0.1905,0 0.3175,0.0529 0.137583,0.0529 0.254,0.13758 0.127,0.0741 0.254,0.16934 0.127,0.0847 0.3175,0.16933 0.3175,0.13758 0.423333,0.508 0.105833,0.35983 0.105833,0.77258 0,0.14817 -0.01058,0.30692 0,0.15875 -0.05292,0.29633 -0.05292,0.127 -0.169333,0.22225 -0.116417,0.0952 -0.338666,0.11642 -0.306917,0 -0.423334,-0.21167 -0.116416,-0.21166 -0.116416,-0.45508 0,-0.13758 0.02117,-0.32808 0.02117,-0.20109 0.02117,-0.40217 0,-0.26458 -0.08467,-0.46567 -0.07408,-0.20108 -0.3175,-0.20108 -0.391583,0 -0.645583,0.28575 -0.243417,0.27517 -0.391583,0.70908 -0.137584,0.43392 -0.201084,0.96309 -0.05292,0.52916 -0.05292,1.02658 0,0.508 0.02117,0.94192 0.03175,0.42333 0.137584,0.762 0.105833,0.33866 0.306916,0.59266 0.201084,0.24342 0.560917,0.40217 0.148167,0.0635 0.328083,0.0635 0.264584,0 0.497417,-0.11642 0.243417,-0.127 0.423333,-0.32808 0.179917,-0.20108 0.28575,-0.45508 0.105833,-0.26459 0.105833,-0.53975 0,-0.27517 0.09525,-0.48684 0.105834,-0.21166 0.338667,-0.21166 0.169333,0 0.22225,0.10583 0.05292,0.10583 0.05292,0.24342 0,0.24341 -0.05292,0.40216 z"
         style="stroke-width:0.26458332"
         id="path323" />
      <path
         d="m 73.804955,165.34634 q 0,0.127 -0.09525,0.22225 -0.08467,0.0952 -0.22225,0.16934 -0.127,0.0741 -0.275167,0.10583 -0.137583,0.0423 -0.232833,0.0423 -0.179917,0 -0.402167,-0.0423 -0.211666,-0.0318 -0.359833,-0.14817 -0.169333,-0.13758 -0.28575,-0.43391 -0.105833,-0.30692 -0.169333,-0.71967 -0.05292,-0.42333 -0.07408,-0.93133 -0.02117,-0.51859 -0.02117,-1.0795 0,-0.23284 0.01058,-0.51859 0.02117,-0.28575 0.04233,-0.59266 0.02117,-0.3175 0.05292,-0.62442 0.03175,-0.3175 0.0635,-0.60325 0.03175,-0.20108 0.07408,-0.43392 0.04233,-0.23283 0.08467,-0.4445 0.05292,-0.21166 0.116417,-0.381 0.0635,-0.16933 0.137583,-0.24341 0.08467,-0.0847 0.22225,-0.10584 0.148167,-0.0317 0.264583,-0.0317 0.243417,0 0.391584,0.127 0.148166,0.127 0.22225,0.34925 0.08467,0.21167 0.105833,0.49742 0.03175,0.27517 0.03175,0.59267 0,0.48683 -0.03175,1.05833 -0.03175,0.56092 -0.137583,1.13242 -0.09525,0.5715 -0.28575,1.11125 -0.179917,0.53975 -0.486834,0.98425 0.01058,0.14816 0.03175,0.34925 0.03175,0.1905 0.08467,0.35983 0.05292,0.16933 0.137583,0.28575 0.08467,0.11642 0.22225,0.11642 0.127,0 0.201084,-0.0529 0.07408,-0.0635 0.127,-0.13758 0.0635,-0.0741 0.116416,-0.127 0.0635,-0.0635 0.15875,-0.0635 0.105834,0 0.137584,0.0635 0.04233,0.0635 0.04233,0.14816 z m -0.79375,-4.97416 q 0,-0.10584 -0.01058,-0.254 0,-0.14817 -0.03175,-0.28575 -0.02117,-0.14817 -0.0635,-0.24342 -0.04233,-0.10583 -0.116417,-0.10583 -0.105833,0 -0.169333,0.29633 -0.0635,0.29633 -0.105834,0.78317 -0.03175,0.47625 -0.05292,1.09008 -0.01058,0.60325 -0.01058,1.22767 0,0.17991 0,0.381 0,0.1905 0.02117,0.33866 0.34925,-0.83608 0.4445,-1.61925 0.09525,-0.78316 0.09525,-1.60866 z"
         style="stroke-width:0.26458332"
         id="path325" />
      <path
         d="m 77.289187,162.62643 q 0.04233,-0.0741 0.148167,-0.0741 0.05292,0 0.07408,0.0635 0.02117,0.0635 0.02117,0.10584 -0.01058,0.32808 -0.148166,0.59266 -0.127,0.254 -0.275167,0.4445 -0.08467,0.11642 -0.1905,0.21167 -0.09525,0.0953 -0.201083,0.17992 -0.01058,0.17991 -0.02117,0.254 0,0.0635 -0.01058,0.10583 -0.02117,0.15875 -0.105833,0.40217 -0.08467,0.24341 -0.243417,0.47625 -0.148167,0.23283 -0.370417,0.39158 -0.211666,0.16933 -0.497416,0.16933 -0.09525,0 -0.22225,-0.0212 -0.116417,-0.0212 -0.243417,-0.0635 -0.127,-0.0317 -0.243417,-0.0847 -0.116416,-0.0423 -0.201083,-0.0952 -0.264583,-0.14817 -0.433917,-0.34925 -0.169333,-0.20108 -0.264583,-0.42333 -0.08467,-0.23284 -0.116417,-0.46567 -0.03175,-0.24342 -0.03175,-0.46567 0,-0.381 0.07408,-0.77258 0.08467,-0.39158 0.201083,-0.75142 0.116417,-0.35983 0.264583,-0.64558 0.148167,-0.28575 0.28575,-0.4445 0.137584,-0.14817 0.306917,-0.20108 0.169333,-0.0635 0.306917,-0.0635 0.169333,0 0.338666,0.0847 0.169334,0.0847 0.328084,0.21167 0.15875,0.127 0.306916,0.29633 0.15875,0.15875 0.296334,0.3175 0.105833,0.11642 0.15875,0.381 0.05292,0.254 0.08467,0.51859 0.02117,0.14816 0.03175,0.3175 0.01058,0.16933 0.01058,0.34925 0.15875,-0.127 0.254,-0.26459 0.09525,-0.14816 0.148166,-0.27516 0.0635,-0.127 0.09525,-0.23284 0.04233,-0.11641 0.08467,-0.17991 z m -1.195917,0.91016 q 0,-0.0423 -0.01058,-0.1905 0,-0.14816 -0.02117,-0.34925 -0.01058,-0.20108 -0.05292,-0.41275 -0.03175,-0.22225 -0.105834,-0.40216 -0.0635,-0.17992 -0.169333,-0.29634 -0.105833,-0.127 -0.264583,-0.127 -0.15875,0 -0.306917,0.127 -0.148167,0.127 -0.264583,0.32809 -0.116417,0.20108 -0.1905,0.45508 -0.0635,0.254 -0.0635,0.49742 0,0.42333 0.169333,0.62441 0.169333,0.1905 0.582083,0.1905 0.306917,0 0.497417,-0.0952 0.201083,-0.0952 0.201083,-0.14816 v -0.20109 z m -0.05292,0.86784 q -0.127,0.0847 -0.34925,0.127 -0.22225,0.0423 -0.370417,0.0423 -0.28575,0 -0.4445,-0.0423 -0.148167,-0.0423 -0.328083,-0.16934 l -0.01058,0.22225 q 0,0.11642 0.03175,0.24342 0.03175,0.127 0.09525,0.23283 0.07408,0.10584 0.201084,0.17992 0.127,0.0635 0.3175,0.0635 0.232833,0 0.391583,-0.0847 0.169333,-0.0952 0.264583,-0.23283 0.105834,-0.13758 0.148167,-0.29633 0.05292,-0.15875 0.05292,-0.28575 z"
         style="stroke-width:0.26458332"
         id="path327" />
      <path
         d="m 78.85734,163.34609 q -0.15875,0.22225 -0.264583,0.49742 -0.09525,0.26458 -0.169334,0.56092 -0.07408,0.28575 -0.127,0.58208 -0.04233,0.28575 -0.09525,0.55033 -0.02117,0.0635 -0.169333,0.0847 -0.137583,0.0212 -0.201083,0.0212 -0.1905,0 -0.3175,-0.0212 -0.116417,-0.0212 -0.179917,-0.0952 -0.0635,-0.0847 -0.09525,-0.24342 -0.03175,-0.16933 -0.05292,-0.4445 l 0.137584,-3.14325 q 0,-0.13758 0.148166,-0.13758 0.05292,0 0.148167,0.0212 0.09525,0.0106 0.201083,0.0423 0.105834,0.0317 0.179917,0.0847 0.07408,0.0423 0.07408,0.10583 v 2.14842 q 0.01058,-0.0106 0.03175,-0.0847 0.07408,-0.1905 0.179917,-0.46567 0.105833,-0.28575 0.232833,-0.53975 0.127,-0.254 0.264584,-0.43391 0.148166,-0.17992 0.296333,-0.17992 0.1905,0 0.28575,0.0952 0.105833,0.0847 0.15875,0.22225 0.05292,0.13758 0.0635,0.29633 0.01058,0.15875 0.01058,0.30692 0,0.10583 -0.02117,0.34925 -0.02117,0.24342 -0.02117,0.73025 0,0.27517 0.05292,0.49742 0.05292,0.22225 0.211666,0.22225 0.116417,0 0.211667,-0.10584 0.09525,-0.10583 0.169333,-0.26458 0.08467,-0.15875 0.137583,-0.33867 0.05292,-0.17991 0.0635,-0.33866 0.01058,-0.20109 0.15875,-0.20109 0.09525,0 0.127,0.0635 0.03175,0.0635 0.03175,0.14817 v 0.0212 q -0.01058,0.21166 -0.08467,0.47625 -0.0635,0.26458 -0.201084,0.49741 -0.127,0.23284 -0.338666,0.39159 -0.211667,0.15875 -0.518583,0.15875 -0.47625,0 -0.613834,-0.33867 -0.127,-0.34925 -0.127,-1.02658 z"
         style="stroke-width:0.26458332"
         id="path329" />
      <path
         d="m 83.574199,164.02343 q 0,0.26458 -0.09525,0.59266 -0.09525,0.32809 -0.296333,0.61384 -0.201083,0.27516 -0.518583,0.46566 -0.306917,0.1905 -0.740834,0.1905 -0.41275,0 -0.6985,-0.14816 -0.28575,-0.14817 -0.47625,-0.40217 -0.179916,-0.254 -0.264583,-0.59267 -0.07408,-0.34925 -0.07408,-0.73025 0,-0.37041 0.08467,-0.81491 0.08467,-0.4445 0.264584,-0.8255 0.179916,-0.39159 0.455083,-0.64559 0.275167,-0.26458 0.66675,-0.26458 0.1905,0 0.359833,0.0847 0.169334,0.0741 0.296334,0.20108 0.127,0.127 0.201083,0.29633 0.07408,0.16934 0.08467,0.34925 l 0.01058,0.14817 q 0,0.254 -0.08467,0.56092 -0.08467,0.29633 -0.243416,0.56091 -0.15875,0.254 -0.391584,0.43392 -0.232833,0.16933 -0.529166,0.16933 -0.05292,0 -0.137584,-0.0106 -0.07408,-0.0106 -0.148166,-0.0317 v 0.30692 q 0,0.0741 0.04233,0.21166 0.05292,0.13759 0.148167,0.27517 0.09525,0.127 0.243416,0.23283 0.15875,0.0952 0.381,0.0952 0.306917,0 0.497417,-0.11641 0.201083,-0.127 0.328083,-0.3175 0.127,-0.1905 0.1905,-0.42334 0.07408,-0.24341 0.116417,-0.46566 0.03175,-0.14817 0.0635,-0.20109 0.03175,-0.0529 0.105833,-0.0529 0.15875,0 0.15875,0.17991 z m -1.248833,-1.64042 q 0,-0.0847 -0.05292,-0.17992 -0.04233,-0.0952 -0.169333,-0.0952 -0.1905,0 -0.328083,0.20109 -0.137584,0.20108 -0.232834,0.46566 -0.08467,0.254 -0.127,0.49742 -0.04233,0.23283 -0.04233,0.30692 v 0.0317 q 0,0.0952 0.01058,0.15875 0.02117,0.0529 0.116417,0.0529 h 0.05292 q 0.211666,0 0.359833,-0.15875 0.148167,-0.15875 0.232833,-0.381 0.09525,-0.22225 0.137584,-0.45508 0.04233,-0.23283 0.04233,-0.381 z"
         style="stroke-width:0.26458332"
         id="path331" />
    </g>
  </g>
</svg>
